#!OML:ASF X:\für Bonn\!DataBase\2005_08_10_Bjorn_Final\c3d\bjorn.ASF
:FULLY-SPECIFIED
:DEGREES
151
root 16.4432 17.6417 0.0742854 1091.96 -65.382 -330.431
lowerback 61.4118 -0.65969 11.2352
upperback 20.4175 2.46618 -1.12957
thorax 2.37305 1.76989 -6.93648
lowerneck 10.0981 -6.16415 11.9957
upperneck -19.7909 -7.17269 -3.11818
head -8.39247 -4.13493 -2.23427
rclavicle 2.8625e-014 -3.33958e-014
rhumerus 78.2478 -5.72298 -68.7326
rradius 3.83354
rwrist -1.73158
rhand -49.2344 32.7785
rfingers 7.12502
rthumb -21.8542 3.99261
lclavicle 2.8625e-014 -3.33958e-014
lhumerus -6.16271 -23.5308 88.5843
lradius 49.6532
lwrist -0.122309
lhand -28.2185 -16.022
lfingers 7.12502
lthumb -1.59692 13.9518
rfemur -79.5559 -18.4507 14.7326
rtibia 63.4412
rfoot -17.3674 9.73428
rtoes -4.98872
lfemur -75.1485 -4.26706 -25.2762
ltibia 56.1249
lfoot -12.1792 -8.84714
ltoes -5.39444
152
root 16.429 17.646 0.0667558 1092 -65.3245 -330.509
lowerback 61.5081 -0.621772 11.2215
upperback 20.4369 2.50683 -1.10037
thorax 2.39859 1.78726 -6.90978
lowerneck 10.1084 -6.19999 12.0901
upperneck -19.8077 -7.21438 -3.1633
head -8.40936 -4.15798 -2.25886
rclavicle -7.31528e-014 -2.38542e-014
rhumerus 78.1715 -5.64773 -68.1677
rradius 3.79588
rwrist -2.00619
rhand -49.6365 33.5152
rfingers 7.12502
rthumb -22.2402 4.7748
lclavicle -7.31528e-014 -2.38542e-014
lhumerus -6.1841 -23.7802 88.6613
lradius 49.8202
lwrist 0.0226178
lhand -28.2929 -15.9403
lfingers 7.12502
lthumb -1.6688 14.0329
rfemur -79.439 -18.4361 14.7525
rtibia 63.4114
rfoot -17.4363 9.71524
rtoes -4.91509
lfemur -75.0352 -4.22072 -25.2593
ltibia 56.0545
lfoot -12.1573 -8.93826
ltoes -5.20089
153
root 16.415 17.6495 0.0593946 1092.02 -65.2478 -330.579
lowerback 61.5949 -0.586497 11.1927
upperback 20.4578 2.53853 -1.04409
thorax 2.42261 1.795 -6.84356
lowerneck 10.1566 -6.2267 12.1261
upperneck -19.8531 -7.25063 -3.2106
head -8.43966 -4.17437 -2.27439
rclavicle -1.43125e-013 5.40694e-014
rhumerus 78.0404 -5.54484 -67.5751
rradius 3.89273
rwrist -2.2819
rhand -49.975 34.1622
rfingers 7.12502
rthumb -22.5651 5.46095
lclavicle -1.43125e-013 5.40694e-014
lhumerus -6.19652 -23.9715 88.7594
lradius 49.9395
lwrist 0.101785
lhand -28.4099 -15.8239
lfingers 7.12502
lthumb -1.78183 14.1484
rfemur -79.3247 -18.4485 14.7852
rtibia 63.3965
rfoot -17.5239 9.68066
rtoes -5.10568
lfemur -74.9182 -4.19579 -25.2399
ltibia 55.9966
lfoot -12.1298 -9.04849
ltoes -4.91135
154
root 16.4015 17.6526 0.0528201 1092.1 -65.1863 -330.683
lowerback 61.6805 -0.552626 11.1851
upperback 20.4677 2.5799 -1.00202
thorax 2.43768 1.80995 -6.80565
lowerneck 10.1849 -6.26051 12.1901
upperneck -19.8805 -7.29611 -3.26813
head -8.46272 -4.19595 -2.29733
rclavicle -6.36111e-015 -3.18055e-015
rhumerus 77.8831 -5.45554 -66.9937
rradius 4.01165
rwrist -2.48638
rhand -50.321 34.8085
rfingers 7.12502
rthumb -22.8972 6.14797
lclavicle -6.36111e-015 -3.18055e-015
lhumerus -6.23748 -24.1812 88.8507
lradius 50.0513
lwrist 0.163665
lhand -28.5386 -15.6912
lfingers 7.12502
lthumb -1.90611 14.28
rfemur -79.2213 -18.4395 14.8268
rtibia 63.3765
rfoot -17.6138 9.63432
rtoes -5.22708
lfemur -74.8314 -4.16406 -25.2051
ltibia 55.9529
lfoot -12.1153 -9.13954
ltoes -4.72306
